# xmcd
#
# Track frame offsets:
# 150
# 13458
# 35643
# 68548
# 84447
# 108801
#
# Disc length: 1723 seconds
#
# Revision: 1
# Processed by: cddbd v1.5.2PL0 Copyright (c) Steve Scherf et al.
# Submitted via: CedeCatalogueitor 2.6.0.6 http://personales.ya.com/cdcatalogueitor
#
DISCID=4306b906
DTITLE=Yacht - The Afterlife
DYEAR=1900
DGENRE=
TTITLE0=The Afterlife
TTITLE1=The Afterlife (Dat Politics Rmx)
TTITLE2=The Afterlife (Andrew WK Rmx)
TTITLE3=The Afterlife (the XX Rmx)
TTITLE4=The Afterlife (Joy Electric Rmx)
TTITLE5=The Afterlife
EXTD=
EXTT0=
EXTT1=
EXTT2=
EXTT3=
EXTT4=
EXTT5=
PLAYORDER=
